<?xml version="1.0" encoding="utf-8"?>
<!-- Generator: Adobe Illustrator 25.0.1, SVG Export Plug-In . SVG Version: 6.00 Build 0)  -->
<svg version="1.1" id="Layer_1" xmlns="http://www.w3.org/2000/svg" xmlns:xlink="http://www.w3.org/1999/xlink" x="0px" y="0px"
	 viewBox="0 0 226.6 41.8" style="enable-background:new 0 0 226.6 41.8;" xml:space="preserve">
<style type="text/css">
	.st0{fill:url(#SVGID_1_);}
	.st1{fill:url(#SVGID_2_);}
	.st2{fill:url(#SVGID_3_);}
</style>
<g id="_x31_19c42ea-a941-4dfd-b783-d3e3bd3ab748" transform="matrix(1.4628557985258324,0,0,1.4628557985258324,90.44037362976681,137.55841117893422)">
	<path d="M-17.5-87h-6.6v11.6h6.6v-2.3h-4V-80h3.8v-2.3h-3.8v-2.3h4V-87z M-7.6-75.4l-3.1-3.8l2.6-3.4H-11l-1.2,1.6l-1.3-1.7h-2.9
		l2.6,3.4l-3.1,3.8h3l1.6-2l1.6,2L-7.6-75.4L-7.6-75.4z M1.6-79c0-2.1-1.5-3.8-3.6-3.8c-1,0-1.8,0.4-2.4,1l0,0v-0.8h-2.4v10.8h2.5
		v-4.3c0.6,0.6,1.4,0.9,2.4,0.9C0.1-75.2,1.6-76.9,1.6-79z M-1-79c0,1-0.7,1.7-1.7,1.7c-0.9,0-1.7-0.7-1.7-1.7s0.7-1.7,1.7-1.7
		S-1-80-1-79z M2.8-75.4h2.5v-12H2.8V-75.4z M6.4-79c0,2.2,1.7,3.8,4.3,3.8c2.5,0,4.3-1.6,4.3-3.8c0-2.2-1.9-3.8-4.3-3.8
		S6.4-81.3,6.4-79z M9-79c0-1,0.7-1.7,1.7-1.7c0.9,0,1.7,0.7,1.7,1.7s-0.7,1.7-1.7,1.7S9-78,9-79z M15.6-79c0,2.1,1.5,3.8,3.6,3.8
		c1,0,1.8-0.4,2.4-1l0,0v0.8h2.5v-12h-2.5v5.5c-0.6-0.6-1.4-0.9-2.4-0.9C17.1-82.8,15.6-81.1,15.6-79z M18.3-79c0-1,0.8-1.7,1.7-1.7
		c0.9,0,1.7,0.7,1.7,1.7S21-77.3,20-77.3C19-77.3,18.3-78,18.3-79z M27-87.1c-0.8,0-1.5,0.7-1.5,1.5s0.7,1.5,1.5,1.5
		s1.5-0.7,1.5-1.5S27.8-87.1,27-87.1z M25.7-82.6h2.5v7.2h-2.5V-82.6z M30-75.4h2.5v-4.1c0-0.7,0.7-1.4,1.5-1.4s1.3,0.7,1.3,1.4v4.1
		h2.5v-4.7c0-2-1.8-2.7-3.2-2.7c-0.8,0-1.5,0.4-2,1l0,0v-0.8h-2.5L30-75.4L30-75.4z M38.9-73.7c0.8,1.8,2.5,2.1,4,2.1
		c2.4,0,4.2-1.2,4.2-3.7v-7.4h-2.5v0.6l0,0c-0.6-0.5-1.4-0.8-2.3-0.8c-2.1,0-3.6,1.7-3.6,3.8s1.5,3.8,3.6,3.8c1,0,1.8-0.1,2.3-0.7
		v0.5c0,1.3-1.1,1.7-1.8,1.7c-1.1,0-1.7-0.5-2-0.9L38.9-73.7z M41.3-79c0-1,0.7-1.7,1.7-1.7c0.9,0,1.7,0.7,1.7,1.7S44-77.3,43-77.3
		S41.3-78,41.3-79z M58.3-77.8c-2.7,0-3.8-1.8-3.8-3.4c0-1.5,1.2-3.4,3.8-3.4c1.3,0,2.3,0.7,2.3,0.7l1.1-2.2c0,0-1.3-1.1-3.8-1.1
		c-3.3,0-6.3,2.7-6.3,6s3,6,6.3,6c2.5,0,3.8-1.1,3.8-1.1l-1.1-2.2C60.6-78.5,59.6-77.8,58.3-77.8z M62.2-79c0,2.2,1.7,3.8,4.3,3.8
		c2.5,0,4.3-1.6,4.3-3.8c0-2.2-1.9-3.8-4.3-3.8C64.1-82.8,62.2-81.3,62.2-79z M64.8-79c0-1,0.7-1.7,1.7-1.7c0.9,0,1.7,0.7,1.7,1.7
		s-0.7,1.7-1.7,1.7S64.8-78,64.8-79z M73.2-87.1c-0.8,0-1.5,0.7-1.5,1.5s0.7,1.5,1.5,1.5s1.5-0.7,1.5-1.5S74-87.1,73.2-87.1z
		 M71.9-82.6h2.5v7.2h-2.5V-82.6z M76.1-75.4h2.5v-4.1c0-0.7,0.7-1.4,1.5-1.4s1.3,0.7,1.3,1.4v4.1h2.5v-4.7c0-2-1.8-2.7-3.2-2.7
		c-0.8,0-1.5,0.4-2.1,1l0,0v-0.8h-2.5L76.1-75.4L76.1-75.4z M88.4-82.8c-1.9,0-3.1,0.8-3.1,2.3c0,1.1,0.7,1.6,1.5,2s1.6,0.5,1.6,1
		S88-77,87.6-77c-0.8,0-1.8-0.8-1.8-0.8l-1,1.7c0,0,1,1,2.8,1c1.5,0,3.4-0.3,3.4-2.5c0-1.5-1.2-2-2.2-2.3c-0.6-0.2-1.1-0.3-1.1-0.7
		c0-0.3,0.2-0.4,0.8-0.4c0.8,0,1.6,0.5,1.6,0.5l0.8-1.6C90.9-82.3,89.8-82.8,88.4-82.8z"/>
</g>
<g id="_x36_f4c8e90-b81d-46e0-b738-5afa11e5d931" transform="matrix(0.46365917720992356,0,0,0.46365917720992356,36.29072658232061,126.77067592927058)">
	<linearGradient id="SVGID_1_" gradientUnits="userSpaceOnUse" x1="-103.2358" y1="-321.3546" x2="-55.4208" y2="-253.2886">
		<stop  offset="0" style="stop-color:#462AB9"/>
		<stop  offset="1" style="stop-color:#737048"/>
	</linearGradient>
	<path class="st0" d="M-31.1-256.4c0-1.1-0.9-1.9-1.9-1.9c-17,0-30.8,13.8-30.8,30.8c0,1.1,0.9,1.9,1.9,1.9s1.9-0.9,1.9-1.9
		c0-14.8,12.1-26.9,26.9-26.9C-32-254.5-31.1-255.3-31.1-256.4z"/>
	<linearGradient id="SVGID_2_" gradientUnits="userSpaceOnUse" x1="-97.6038" y1="-325.3109" x2="-49.7889" y2="-257.2449">
		<stop  offset="0" style="stop-color:#462AB9"/>
		<stop  offset="1" style="stop-color:#737048"/>
	</linearGradient>
	<path class="st1" d="M-24.9-265.1h-8.2c-20.6,0-37.5,16.8-37.5,37.5S-53.8-190-33-190h1v0.1h7.2c20.7,0,37.6-16.9,37.6-37.6
		C12.7-248.3-4.1-265.1-24.9-265.1z M-9.2-198.6l2.1-1.8h2.3c-1,0.7-2,1.4-3,2v-0.2H-9.2z M-3.6-204.3c0.6-0.7,1.1-1.4,1.6-2.1h3.4
		c-0.6,0.7-1.2,1.5-1.9,2.1H-3.6z M0.3-210.3c0.4-0.7,0.7-1.4,1-2.1h4l-1.2,2.1H0.3z M-4.2-254.1c0.8,0.5,1.5,1.2,2.3,1.8h-2.8
		c-0.6-0.6-1.1-1.3-1.7-1.8H-4.2z M1.6-248.4c0.5,0.7,1.1,1.4,1.6,2.1h-3.6c-0.4-0.7-0.9-1.4-1.3-2.1H1.6z M5.4-242.4
		c0.3,0.7,0.7,1.4,1,2.1H2.3c-0.3-0.7-0.5-1.4-0.8-2.1H5.4z M2.8-216.3l0.6-2.1h4.2c-0.2,0.7-0.4,1.4-0.7,2.1H2.8z M4.2-222.2
		c0.1-0.7,0.2-1.4,0.2-2.1h4.3l-0.3,2.1H4.2z M4.5-228.2c0-0.7,0-1.4-0.1-2.1h4.3c0.1,0.7,0.1,1.4,0.1,2.1H4.5z M3.9-234.2
		c-0.1-0.7-0.3-1.4-0.4-2.1h4.2c0.2,0.7,0.4,1.4,0.5,2.1H3.9z M-66.7-227.6c0-18.6,15.1-33.7,33.7-33.7s33.7,15.1,33.7,33.7
		s-15.1,33.7-33.7,33.7S-66.7-209-66.7-227.6z"/>
	<linearGradient id="SVGID_3_" gradientUnits="userSpaceOnUse" x1="-99.6011" y1="-323.9079" x2="-51.7861" y2="-255.8419">
		<stop  offset="0" style="stop-color:#462AB9"/>
		<stop  offset="1" style="stop-color:#737048"/>
	</linearGradient>
	<path class="st2" d="M-30.8-237c3.1,0,5.6,1.3,7.3,3.7l5.9-5.5c-1.9-2.6-5.3-5.2-10.5-6v-4.3h-7.8v4.6c-8.1,1.9-13.5,8.6-13.5,17.5
		s5.4,15.7,13.5,17.5v4.2h7.8v-3.9c5.2-0.7,8.6-3.3,10.5-6l-6-5.6c-1.6,2.3-4.1,3.7-7.3,3.7c-5.5,0-9.3-4.1-9.3-10
		C-40.1-233.1-36.3-237-30.8-237z"/>
</g>
</svg>
