<?xml version="1.0" encoding="utf-8"?>
<!-- Generator: Adobe Illustrator 25.0.1, SVG Export Plug-In . SVG Version: 6.00 Build 0)  -->
<svg version="1.1" id="Layer_1" xmlns="http://www.w3.org/2000/svg" xmlns:xlink="http://www.w3.org/1999/xlink" x="0px" y="0px"
	 viewBox="0 0 226.6 41.8" style="enable-background:new 0 0 226.6 41.8;" xml:space="preserve">
<style type="text/css">
	.st0{fill:url(#SVGID_1_);}
</style>
<g id="cd93c668-ab25-4ade-9fc6-cfaf02cafe01" transform="matrix(1.9118796036931915,0,0,1.9118796036931915,38.39402106908185,133.73946363783526)">
	
		<linearGradient id="SVGID_1_" gradientUnits="userSpaceOnUse" x1="-118.4066" y1="144.9141" x2="-117.4066" y2="144.9141" gradientTransform="matrix(199.3877 12.839 92.976 -27.5334 10104.1553 5445.8311)">
		<stop  offset="0" style="stop-color:#462AB9"/>
		<stop  offset="1" style="stop-color:#737048"/>
	</linearGradient>
	<path class="st0" d="M-12.4-67.5H-19v11.5h6.6v-2.3h-4v-2.3h3.8v-2.3h-3.8v-2.3h4V-67.5z M-2.6-55.9l-3.1-3.8l2.6-3.4h-2.9
		l-1.2,1.7l-1.2-1.7h-2.9l2.6,3.4l-3.1,3.8h3l1.6-2l1.6,2H-2.6z M6.6-59.5c0-2.1-1.5-3.8-3.6-3.8c-1,0-1.8,0.4-2.4,1h0v-0.8h-2.4
		v10.8h2.5v-4.3c0.6,0.6,1.4,0.9,2.4,0.9C5.2-55.7,6.6-57.4,6.6-59.5z M4-59.5c0,1-0.7,1.7-1.7,1.7c-0.9,0-1.7-0.7-1.7-1.7
		c0-1,0.7-1.7,1.7-1.7C3.3-61.2,4-60.5,4-59.5z M7.8-55.9h2.5v-12H7.8V-55.9z M11.4-59.5c0,2.2,1.7,3.8,4.3,3.8
		c2.5,0,4.3-1.6,4.3-3.8c0-2.2-1.9-3.8-4.3-3.8C13.3-63.3,11.4-61.7,11.4-59.5z M14.1-59.5c0-1,0.7-1.7,1.7-1.7
		c0.9,0,1.7,0.7,1.7,1.7c0,1-0.7,1.7-1.7,1.7C14.7-57.8,14.1-58.5,14.1-59.5z M20.7-59.5c0,2.1,1.5,3.8,3.6,3.8c1,0,1.8-0.4,2.4-1h0
		v0.8h2.5v-12h-2.5v5.5c-0.6-0.6-1.4-0.9-2.4-0.9C22.2-63.3,20.7-61.6,20.7-59.5z M23.3-59.5c0-1,0.7-1.7,1.7-1.7s1.7,0.7,1.7,1.7
		c0,1-0.7,1.7-1.7,1.7C24-57.8,23.3-58.5,23.3-59.5z M32.1-67.5c-0.8,0-1.5,0.7-1.5,1.5c0,0.8,0.7,1.5,1.5,1.5
		c0.8,0,1.5-0.7,1.5-1.5C33.5-66.9,32.9-67.5,32.1-67.5z M30.8-63.1h2.5v7.2h-2.5V-63.1z M35-55.9h2.5V-60c0-0.7,0.7-1.4,1.5-1.4
		c0.8,0,1.3,0.7,1.3,1.4v4.1h2.5v-4.7c0-2-1.8-2.7-3.1-2.7c-0.8,0-1.5,0.4-2,1h0v-0.8H35V-55.9z M43.9-54.2c0.8,1.8,2.5,2.1,4,2.1
		c2.4,0,4.2-1.2,4.2-3.7v-7.4h-2.5v0.6h0c-0.6-0.5-1.4-0.8-2.3-0.8c-2.1,0-3.6,1.7-3.6,3.8s1.5,3.8,3.6,3.8c1,0,1.8-0.1,2.3-0.7v0.5
		c0,1.3-1.1,1.7-1.8,1.7c-1.1,0-1.7-0.5-2-0.9L43.9-54.2z M46.4-59.5c0-1,0.7-1.7,1.7-1.7c0.9,0,1.7,0.7,1.7,1.7
		c0,1-0.7,1.7-1.7,1.7C47-57.8,46.4-58.5,46.4-59.5z M63.3-58.3c-2.6,0-3.8-1.8-3.8-3.4c0-1.5,1.2-3.4,3.8-3.4
		c1.3,0,2.3,0.7,2.3,0.7l1.1-2.2c0,0-1.3-1.1-3.8-1.1c-3.3,0-6.3,2.7-6.3,6c0,3.3,3,6,6.3,6c2.5,0,3.8-1.1,3.8-1.1L65.6-59
		C65.6-59,64.7-58.3,63.3-58.3z M67.2-59.5c0,2.2,1.7,3.8,4.3,3.8c2.5,0,4.3-1.6,4.3-3.8c0-2.2-1.9-3.8-4.3-3.8
		C69.1-63.3,67.2-61.7,67.2-59.5z M69.9-59.5c0-1,0.7-1.7,1.7-1.7c0.9,0,1.7,0.7,1.7,1.7c0,1-0.7,1.7-1.7,1.7
		C70.5-57.8,69.9-58.5,69.9-59.5z M78.2-67.5c-0.8,0-1.5,0.7-1.5,1.5c0,0.8,0.7,1.5,1.5,1.5s1.5-0.7,1.5-1.5
		C79.7-66.9,79-67.5,78.2-67.5z M77-63.1h2.5v7.2H77V-63.1z M81.2-55.9h2.5V-60c0-0.7,0.7-1.4,1.5-1.4c0.8,0,1.3,0.7,1.3,1.4v4.1
		h2.5v-4.7c0-2-1.8-2.7-3.2-2.7c-0.8,0-1.5,0.4-2.1,1h0v-0.8h-2.5V-55.9z M93.5-63.3c-1.9,0-3.1,0.8-3.1,2.3c0,1.1,0.7,1.6,1.5,2
		c0.8,0.4,1.6,0.5,1.6,1c0,0.5-0.4,0.5-0.8,0.5c-0.8,0-1.8-0.8-1.8-0.8l-1,1.7c0,0,1,1,2.8,1c1.5,0,3.4-0.3,3.4-2.5
		c0-1.5-1.2-2-2.2-2.3c-0.6-0.2-1.1-0.3-1.1-0.7c0-0.3,0.2-0.4,0.8-0.4c0.8,0,1.6,0.4,1.6,0.4l0.8-1.6
		C95.9-62.7,94.9-63.3,93.5-63.3z"/>
</g>
</svg>
