<?xml version="1.0" encoding="utf-8"?>
<!-- Generator: Adobe Illustrator 25.0.1, SVG Export Plug-In . SVG Version: 6.00 Build 0)  -->
<svg version="1.1" id="Layer_1" xmlns="http://www.w3.org/2000/svg" xmlns:xlink="http://www.w3.org/1999/xlink" x="0px" y="0px"
	 viewBox="0 0 215.34 33.39" style="enable-background:new 0 0 215.34 33.39;" xml:space="preserve">
<style type="text/css">
	.st0{fill:#233DBD;}
</style>
<path d="M56.13,7.9h-9.65v16.97h9.65v-3.36h-5.85v-3.36h5.56v-3.36h-5.56v-3.36h5.85V7.9z M70.61,24.87l-4.53-5.56l3.8-4.97h-4.24
	l-1.76,2.34l-1.9-2.49h-4.24l3.8,4.97l-4.53,5.56h4.39l2.34-2.93l2.34,2.93L70.61,24.87L70.61,24.87z M84.07,19.61
	c0-3.07-2.19-5.56-5.27-5.56c-1.46,0-2.63,0.59-3.51,1.46l0,0v-1.17h-3.51v15.8h3.66v-6.29c0.88,0.88,2.05,1.32,3.51,1.32
	C81.88,25.17,84.07,22.68,84.07,19.61z M80.27,19.61c0,1.46-1.02,2.49-2.49,2.49c-1.32,0-2.49-1.02-2.49-2.49s1.02-2.49,2.49-2.49
	S80.27,18.14,80.27,19.61z M85.83,24.87h3.66V7.32h-3.66V24.87z M91.09,19.61c0,3.22,2.49,5.56,6.29,5.56
	c3.66,0,6.29-2.34,6.29-5.56s-2.78-5.56-6.29-5.56C93.87,14.05,91.09,16.24,91.09,19.61z M94.9,19.61c0-1.46,1.02-2.49,2.49-2.49
	c1.32,0,2.49,1.02,2.49,2.49s-1.02,2.49-2.49,2.49C95.92,22.09,94.9,21.07,94.9,19.61z M104.55,19.61c0,3.07,2.19,5.56,5.27,5.56
	c1.46,0,2.63-0.59,3.51-1.46l0,0v1.17h3.66V7.32h-3.66v8.05c-0.88-0.88-2.05-1.32-3.51-1.32C106.75,14.05,104.55,16.53,104.55,19.61
	z M108.5,19.61c0-1.46,1.17-2.49,2.49-2.49s2.49,1.02,2.49,2.49s-1.02,2.49-2.49,2.49C109.53,22.09,108.5,21.07,108.5,19.61z
	 M121.23,7.76c-1.17,0-2.19,1.02-2.19,2.19s1.02,2.19,2.19,2.19c1.17,0,2.19-1.02,2.19-2.19S122.4,7.76,121.23,7.76z M119.33,14.34
	h3.66v10.53h-3.66V14.34z M125.62,24.87h3.66v-6c0-1.02,1.02-2.05,2.19-2.05s1.9,1.02,1.9,2.05v6h3.66V18
	c0-2.93-2.63-3.95-4.68-3.95c-1.17,0-2.19,0.59-2.93,1.46l0,0v-1.17h-3.66L125.62,24.87L125.62,24.87z M138.64,27.36
	c1.17,2.63,3.66,3.07,5.85,3.07c3.51,0,6.14-1.76,6.14-5.41V14.19h-3.66v0.88l0,0c-0.88-0.73-2.05-1.17-3.36-1.17
	c-3.07,0-5.27,2.49-5.27,5.56s2.19,5.56,5.27,5.56c1.46,0,2.63-0.15,3.36-1.02v0.73c0,1.9-1.61,2.49-2.63,2.49
	c-1.61,0-2.49-0.73-2.93-1.32L138.64,27.36z M142.15,19.61c0-1.46,1.02-2.49,2.49-2.49c1.32,0,2.49,1.02,2.49,2.49
	s-1.02,2.49-2.49,2.49S142.15,21.07,142.15,19.61z M163.02,21.36c-3.95,0-5.56-2.63-5.56-4.97c0-2.19,1.76-4.97,5.56-4.97
	c1.9,0,3.36,1.02,3.36,1.02l1.61-3.22c0,0-1.9-1.61-5.56-1.61c-4.83,0-9.22,3.95-9.22,8.78s4.39,8.78,9.22,8.78
	c3.66,0,5.56-1.61,5.56-1.61l-1.61-3.22C166.38,20.34,164.92,21.36,163.02,21.36z M168.72,19.61c0,3.22,2.49,5.56,6.29,5.56
	c3.66,0,6.29-2.34,6.29-5.56s-2.78-5.56-6.29-5.56C171.5,14.05,168.72,16.24,168.72,19.61z M172.52,19.61
	c0-1.46,1.02-2.49,2.49-2.49c1.32,0,2.49,1.02,2.49,2.49s-1.02,2.49-2.49,2.49C173.55,22.09,172.52,21.07,172.52,19.61z
	 M184.81,7.76c-1.17,0-2.19,1.02-2.19,2.19s1.02,2.19,2.19,2.19S187,11.12,187,9.95S185.98,7.76,184.81,7.76z M182.91,14.34h3.66
	v10.53h-3.66V14.34z M189.05,24.87h3.66v-6c0-1.02,1.02-2.05,2.19-2.05s1.9,1.02,1.9,2.05v6h3.66V18c0-2.93-2.63-3.95-4.68-3.95
	c-1.17,0-2.19,0.59-3.07,1.46l0,0v-1.17h-3.66V24.87L189.05,24.87z M207.05,14.05c-2.78,0-4.53,1.17-4.53,3.36
	c0,1.61,1.02,2.34,2.19,2.93s2.34,0.73,2.34,1.46s-0.59,0.73-1.17,0.73c-1.17,0-2.63-1.17-2.63-1.17l-1.46,2.49
	c0,0,1.46,1.46,4.1,1.46c2.19,0,4.97-0.44,4.97-3.66c0-2.19-1.76-2.93-3.22-3.36c-0.88-0.29-1.61-0.44-1.61-1.02
	c0-0.44,0.29-0.59,1.17-0.59c1.17,0,2.34,0.73,2.34,0.73l1.17-2.34C210.71,14.78,209.1,14.05,207.05,14.05z"/>
<g id="_x36_f4c8e90-b81d-46e0-b738-5afa11e5d931" transform="matrix(0.46365917720992356,0,0,0.46365917720992356,36.29072658232061,126.77067592927058)">
	<path class="st0" d="M-41.34-263.06c0-0.98-0.8-1.69-1.69-1.69c-15.11,0-27.37,12.27-27.37,27.37c0,0.98,0.8,1.69,1.69,1.69
		s1.69-0.8,1.69-1.69c0-13.15,10.75-23.91,23.91-23.91C-42.14-261.37-41.34-262.08-41.34-263.06z"/>
	<path class="st0" d="M-35.83-270.79h-7.29c-18.31,0-33.33,14.93-33.33,33.33s14.93,33.42,33.42,33.42h0.89v0.09h6.4
		c18.4,0,33.42-15.02,33.42-33.42C-2.41-255.86-17.34-270.79-35.83-270.79z M-21.88-211.69l1.87-1.6h2.04
		c-0.89,0.62-1.78,1.24-2.67,1.78v-0.18H-21.88z M-16.9-216.75c0.53-0.62,0.98-1.24,1.42-1.87h3.02c-0.53,0.62-1.07,1.33-1.69,1.87
		H-16.9z M-13.43-222.09c0.36-0.62,0.62-1.24,0.89-1.87h3.56l-1.07,1.87H-13.43z M-17.43-261.01c0.71,0.44,1.33,1.07,2.04,1.6h-2.49
		c-0.53-0.53-0.98-1.16-1.51-1.6H-17.43z M-12.28-255.95c0.44,0.62,0.98,1.24,1.42,1.87h-3.2c-0.36-0.62-0.8-1.24-1.16-1.87H-12.28z
		 M-8.9-250.62c0.27,0.62,0.62,1.24,0.89,1.87h-3.64c-0.27-0.62-0.44-1.24-0.71-1.87H-8.9z M-11.21-227.42l0.53-1.87h3.73
		c-0.18,0.62-0.36,1.24-0.62,1.87H-11.21z M-9.97-232.66c0.09-0.62,0.18-1.24,0.18-1.87h3.82l-0.27,1.87H-9.97z M-9.7-238
		c0-0.62,0-1.24-0.09-1.87h3.82c0.09,0.62,0.09,1.24,0.09,1.87H-9.7z M-10.23-243.33c-0.09-0.62-0.27-1.24-0.36-1.87h3.73
		c0.18,0.62,0.36,1.24,0.44,1.87H-10.23z M-72.98-237.46c0-16.53,13.42-29.95,29.95-29.95s29.95,13.42,29.95,29.95
		s-13.42,29.95-29.95,29.95S-72.98-220.93-72.98-237.46z"/>
	<path class="st0" d="M-41.07-245.82c2.76,0,4.98,1.16,6.49,3.29l5.24-4.89c-1.69-2.31-4.71-4.62-9.33-5.33v-3.82h-6.93v4.09
		c-7.2,1.69-12,7.64-12,15.55c0,7.91,4.8,13.95,12,15.55v3.73h6.93v-3.47c4.62-0.62,7.64-2.93,9.33-5.33l-5.33-4.98
		c-1.42,2.04-3.64,3.29-6.49,3.29c-4.89,0-8.27-3.64-8.27-8.89C-49.34-242.35-45.96-245.82-41.07-245.82z"/>
</g>
</svg>
